<?xml version="1.0" encoding="UTF-8"?>
<svg version="1.1" xmlns="http://www.w3.org/2000/svg" width="4501" height="4501">
<path d="M0 0 C1485.33 0 2970.66 0 4501 0 C4501 1485.33 4501 2970.66 4501 4501 C3015.67 4501 1530.34 4501 0 4501 C0 3015.67 0 1530.34 0 0 Z " fill="#202020" transform="translate(0,0)"/>
<path d="M0 0 C2.54527093 0.00564926 5.09053517 0.00846432 7.63581085 0.0110817 C33.10727734 0.04913334 58.41410482 0.51081036 83.75415802 3.31805801 C84.5580899 3.40527115 85.36202179 3.49248428 86.19031525 3.58234024 C168.39675412 12.54117261 248.74868972 34.20666547 322.47437286 72.14715958 C324.15995278 73.012874 325.84818888 73.87342116 327.53784943 74.73114395 C341.96459444 82.05659353 356.04159738 89.72802003 369.75415802 98.31805801 C370.76043243 98.94647598 371.76670685 99.57489395 372.80347443 100.22235489 C384.78228906 107.72750456 396.59633232 115.33767995 407.85523224 123.89032364 C409.99416976 125.49851426 412.15517439 127.07379889 414.32056427 128.64618301 C428.75515689 139.14128615 442.54177468 150.3174314 456.1037674 161.91034317 C457.87354 163.4198859 459.6495508 164.92188774 461.42603302 166.42352676 C472.2224331 175.57638037 472.2224331 175.57638037 477.09571075 180.66058731 C478.67192578 182.23587419 480.30073916 183.65299329 482.00806427 185.08368301 C488.2259716 190.49089936 493.97613851 196.39131433 499.79053497 202.22406387 C501.8118007 204.25068781 503.83835376 206.27191349 505.86548615 208.29266739 C512.04312458 214.46711961 518.10192115 220.6533598 523.75415802 227.31805801 C525.52777835 229.27282977 527.33001856 231.19904943 529.12915802 233.13055801 C533.4216701 237.7770993 537.48753833 242.55905041 541.45337677 247.48993301 C543.4923343 249.99622377 545.57790902 252.4540012 547.68726349 254.90106583 C554.43851454 262.75402546 560.63178808 270.96989913 566.75415802 279.31805801 C567.51551056 280.34793839 567.51551056 280.34793839 568.29224396 281.39862442 C587.25693871 307.0697617 604.40335504 334.00127892 619.55493927 362.09589005 C620.37054941 363.60722625 621.19105184 365.11593029 622.01587677 366.62225723 C660.25560712 436.57053276 682.85588364 515.5058415 694.00415802 606.13055801 C694.11985641 607.15916946 694.11985641 607.15916946 694.23789215 608.20856094 C697.15214955 634.51905321 698.09566927 660.85824413 698.01490021 687.30878067 C698.00350679 691.0658628 698.01030555 694.82266132 698.02177811 698.57973385 C698.09002471 724.97596615 696.95824929 751.25929694 694.00415802 777.50555801 C693.8801059 778.62873428 693.8801059 778.62873428 693.75354767 779.77460098 C684.97540405 858.55302261 663.05504937 934.94786939 563.75415802 1108.31805801 C563.25883575 1108.96210587 562.76351349 1109.60615372 562.25318146 1110.26971817 C559.12762465 1114.31887598 555.95854019 1118.33106221 552.75415802 1122.31805801 C552.0090799 1123.24618301 551.26400177 1124.17430801 550.49634552 1125.13055801 C541.80406904 1135.84791683 532.81598644 1146.29649379 523.42212677 1156.40399551 C521.44104931 1158.56780779 519.51624979 1160.75119084 517.60474396 1162.97455215 C513.73352863 1167.40369786 509.64092783 1171.57570738 505.47681427 1175.72821426 C504.70663467 1176.49935059 503.93645508 1177.27048691 503.14293671 1178.064991 C501.52474429 1179.68385954 499.9053059 1181.30148352 498.2846756 1182.91791153 C495.8234857 1185.37374519 493.36767993 1187.83487166 490.91236115 1190.29657364 C489.32999935 1191.87827455 487.74732735 1193.45966518 486.16431427 1195.04071426 C485.07800468 1196.1300602 485.07800468 1196.1300602 483.96974945 1197.24141312 C479.93198204 1201.26093422 475.80195543 1205.11304808 471.48200226 1208.82832718 C469.08457841 1210.89536317 466.76666832 1213.04522579 464.44165802 1215.19305801 C459.03939231 1220.11430006 453.44110131 1224.73204862 447.75415802 1229.31805801 C446.57089253 1230.29213667 445.38865749 1231.26746801 444.20728302 1232.24383926 C423.66815143 1249.17016467 402.11877389 1264.80242931 379.69165802 1279.13055801 C378.74500275 1279.73585342 377.79834747 1280.34114883 376.82300568 1280.96478653 C375.94305939 1281.52093643 375.0631131 1282.07708633 374.15650177 1282.65008926 C373.37782745 1283.14226944 372.59915314 1283.63444962 371.79688263 1284.14154434 C369.75415802 1285.31805801 369.75415802 1285.31805801 366.75415802 1286.31805801 C330.50415802 1223.48472468 294.25415802 1160.65139135 258.00415802 1097.81805801 C257.38452179 1096.74402725 256.76488556 1095.66999649 256.12647247 1094.56341934 C254.88540548 1092.41222577 253.64435709 1090.26102147 252.40332794 1088.10980606 C249.48917458 1083.05842803 246.57483984 1078.00715491 243.65982819 1072.95627213 C242.62742324 1071.16738883 241.59507846 1069.37847084 240.56275177 1067.58954239 C239.26729854 1065.34468165 237.97173232 1063.09988611 236.67603302 1060.85516739 C235.53177781 1058.87221083 234.39163297 1056.88687379 233.25659943 1054.89862442 C232.32784058 1053.30340489 231.37157939 1051.72343157 230.37281036 1050.17108536 C229.20337677 1048.32977676 229.20337677 1048.32977676 227.75415802 1045.31805801 C228.88401018 1041.94117354 230.56428226 1040.46462514 233.50806427 1038.57587051 C234.2715921 1038.07434464 235.03511993 1037.57281876 235.82178497 1037.05609512 C236.64509308 1036.52379288 237.46840118 1035.99149063 238.31665802 1035.44305801 C248.01178509 1028.99465407 256.90570368 1021.86902787 265.75415802 1014.31805801 C267.06219832 1013.21583838 268.37078052 1012.11426148 269.67993927 1011.01337051 C274.99429385 1006.5246204 280.25339314 1002.03367333 285.06812286 997.00165176 C286.79730766 995.27497085 288.60214307 993.7035897 290.46509552 992.12274551 C294.74437161 988.3997851 298.64282795 984.40573339 302.50415802 980.25555801 C303.54503571 979.14084122 303.54503571 979.14084122 304.60694122 978.00360489 C367.41103386 910.36063882 404.25826826 823.2606318 411.65454865 661.60620499 C407.60918752 570.74304718 372.55794747 483.66659477 312.75415802 415.31805801 C312.13170197 414.60657608 311.50924591 413.89509415 310.86792755 413.16205215 C304.98857248 406.53389236 298.83421089 400.21190175 292.57105255 393.94964981 C290.88307947 392.25948456 289.20330078 390.56144968 287.52368927 388.86297989 C280.90842991 382.21388242 274.1068189 376.15233366 266.75415802 370.31805801 C265.65214961 369.38349098 264.55581255 368.44213068 263.46900177 367.48993301 C208.26557289 319.3519219 135.85133136 290.72751014 63.75415802 281.31805801 C62.62477814 281.16707657 61.49539825 281.01609512 60.33179474 280.86053848 C22.16276974 275.99426339 -18.1402356 275.91545319 -56.24584198 281.31805801 C-57.49961639 281.49498184 -58.75339081 281.67190567 -60.04515839 281.85419083 C-147.21375366 294.56879384 -224.43544668 332.94048873 -286.47020721 395.28168106 C-289.06441023 397.88665145 -291.66919947 400.48069348 -294.27513885 403.07391739 C-302.37923882 411.17094947 -310.2982641 419.18959932 -317.24584198 428.31805801 C-318.29812575 429.63534504 -319.35143955 430.95181021 -320.40599823 432.26727676 C-334.66651804 450.50100906 -347.31661923 469.916101 -358.24584198 490.31805801 C-358.74035858 491.23989883 -359.23487518 492.16173965 -359.74437714 493.11151505 C-383.35978162 537.62067708 -396.75096269 586.48526728 -402.49584198 636.38055801 C-402.57892609 637.09515182 -402.66201019 637.80974564 -402.747612 638.5459938 C-404.75629679 656.05598027 -405.45575203 673.51189751 -405.43334198 691.13055801 C-405.43273773 692.01957809 -405.43213348 692.90859818 -405.43151093 693.82455826 C-405.34531622 740.92628495 -398.84289135 787.48744556 -384.24584198 832.31805801 C-383.95741425 833.21621231 -383.66898651 834.11436661 -383.37181854 835.0397377 C-377.29238829 853.80297343 -369.34325149 871.92488247 -360.23461151 889.40985489 C-359.22088927 891.36621366 -358.23075612 893.33338651 -357.24193573 895.30243301 C-348.389358 912.715677 -337.69674612 929.10312895 -325.6750412 944.48749161 C-324.24057412 946.32480527 -322.82226589 948.17372384 -321.40599823 950.02508926 C-316.4352359 956.48352789 -311.29096034 962.65932764 -305.73021698 968.62274551 C-303.83171422 970.68244191 -302.00354656 972.76550853 -300.18334198 974.89227676 C-295.697192 980.03552572 -290.89190453 984.8580491 -286.0681076 989.68109512 C-284.50723871 991.24414535 -282.9545631 992.81503167 -281.40209198 994.38641739 C-275.72844814 1000.09105585 -269.94487564 1005.40234758 -263.63036346 1010.40106583 C-261.35313127 1012.23180476 -259.19961855 1014.14376723 -257.05834198 1016.13055801 C-245.71217455 1026.30576866 -232.85048376 1034.80322021 -220.24584198 1043.31805801 C-223.79403296 1050.80387557 -227.71836042 1057.95855074 -231.9496994 1065.07196426 C-235.83355987 1071.60131195 -239.64218987 1078.17197978 -243.43334198 1084.75555801 C-244.07070282 1085.86173477 -244.70806366 1086.96791153 -245.36473846 1088.1076088 C-246.67346614 1090.37929467 -247.98197682 1092.65110556 -249.29027557 1094.92303848 C-252.43916252 1100.38975781 -255.59267462 1105.85380688 -258.74584198 1111.31805801 C-259.99586548 1113.48471112 -261.24586545 1115.65137781 -262.49584198 1117.81805801 C-269.99584198 1130.81805801 -277.49584198 1143.81805801 -284.99584198 1156.81805801 C-285.61467255 1157.89071915 -286.23350311 1158.96338028 -286.87108612 1160.0685463 C-288.12019716 1162.23362872 -289.36938327 1164.39866784 -290.61864471 1166.56366348 C-293.75786507 1172.00421507 -296.89574761 1177.44553017 -300.03099823 1182.88837051 C-306.05331527 1193.34012001 -312.09253535 1203.78105349 -318.18334198 1214.19305801 C-323.60132849 1223.45668637 -328.94115326 1232.76325438 -334.25399017 1242.08737564 C-340.21957525 1252.55474868 -346.26773683 1262.9718329 -352.35521698 1273.36883926 C-354.67810459 1277.3374822 -356.97387729 1281.3200619 -359.24584198 1285.31805801 C-363.60559348 1283.76277664 -367.4116186 1281.52647862 -371.30834198 1279.06805801 C-371.99952118 1278.63332169 -372.69070038 1278.19858536 -373.4028244 1277.7506752 C-394.33435344 1264.43208783 -414.42578591 1249.55638194 -433.5266037 1233.73749161 C-435.93889916 1231.74585772 -438.37579565 1229.78487383 -440.80834198 1227.81805801 C-452.37694406 1218.32454151 -463.47606932 1208.36198147 -474.35765839 1198.09296036 C-476.2640536 1196.300939 -478.18078513 1194.52070159 -480.10131073 1192.74383926 C-490.00339321 1183.57687331 -499.91193478 1174.39782797 -508.67162323 1164.11102676 C-510.29351388 1162.26376173 -511.99244403 1160.54049087 -513.74584198 1158.81805801 C-516.68079011 1155.92189774 -519.42312797 1152.91876622 -522.11302948 1149.79462051 C-523.79493955 1147.84163336 -525.48859104 1145.90137336 -527.19115448 1143.96649551 C-533.52131412 1136.75161822 -539.63241646 1129.42320669 -545.50756073 1121.83368301 C-547.83643727 1118.82684278 -550.22158459 1115.86993395 -552.62084198 1112.91913223 C-572.44574501 1088.45422097 -589.75438031 1061.70987201 -605.24584198 1034.31805801 C-605.73568573 1033.45261368 -606.22552948 1032.58716934 -606.73021698 1031.69549942 C-610.33412733 1025.28788908 -613.82044629 1018.82267716 -617.24584198 1012.31805801 C-617.78821503 1011.2906752 -618.33058807 1010.26329239 -618.88939667 1009.20477676 C-633.83267907 980.68061162 -646.06443458 950.85784966 -656.24584198 920.31805801 C-656.61870331 919.20608047 -656.99156464 918.09410294 -657.37572479 916.94842911 C-674.5295597 865.24186959 -684.44633656 811.53932047 -688.99584198 757.31805801 C-689.05509857 756.61494492 -689.11435516 755.91183182 -689.17540741 755.18741226 C-690.89416809 734.3957447 -691.45375065 713.61341283 -691.43334198 692.75555801 C-691.43273773 691.60264267 -691.43213348 690.44972733 -691.43151093 689.26187515 C-691.31565975 607.23429533 -678.51640167 526.76302972 -651.24584198 449.31805801 C-651.01574432 448.66430191 -650.78564667 448.01054581 -650.54857635 447.33697891 C-643.28677781 426.78950945 -634.57770146 406.99271767 -625.24584198 387.31805801 C-624.7131369 386.19464005 -624.18043182 385.07122208 -623.63158417 383.91376114 C-616.76841459 369.56951603 -609.10565685 355.78961394 -600.93773651 342.15057755 C-599.32647612 339.45305329 -597.73452841 336.74513471 -596.14818573 334.03290176 C-589.33490009 322.4411783 -581.98076198 311.3132342 -574.24584198 300.31805801 C-573.80530487 299.68706192 -573.36476776 299.05606583 -572.91088104 298.40594864 C-562.04592331 282.85065397 -550.34135873 267.93091582 -538.24584198 253.31805801 C-537.7637326 252.73540176 -537.28162323 252.15274551 -536.78490448 251.55243301 C-530.95263127 244.52792716 -524.9328279 237.71269776 -518.72631073 231.01727676 C-516.70542441 228.81817055 -514.74413235 226.59132274 -512.80834198 224.31805801 C-509.29428432 220.25360579 -505.47512034 216.51727101 -501.6528244 212.74652481 C-498.84812186 209.96647512 -496.16726581 207.15368203 -493.62084198 204.13055801 C-490.35994366 200.30254695 -486.69614459 197.06175135 -482.92552948 193.74383926 C-480.06096089 191.15069481 -477.33115095 188.44469556 -474.62084198 185.69305801 C-470.94986694 181.98604255 -467.22826231 178.43872171 -463.26146698 175.05243301 C-460.94469577 173.05893221 -458.69164214 171.00251413 -456.43334198 168.94305801 C-452.19143348 165.11891323 -447.84033101 161.46916346 -443.39818573 157.88055801 C-441.05724317 155.98784889 -438.74334986 154.06555626 -436.43724823 152.13055801 C-426.01803807 143.41183809 -415.28084559 135.24050612 -404.24584198 127.31805801 C-403.50269745 126.78406387 -402.75955292 126.25006973 -401.99388885 125.69989395 C-377.68154623 108.28000339 -352.48022223 92.68939255 -326.24584198 78.31805801 C-325.04556366 77.65193497 -325.04556366 77.65193497 -323.82103729 76.97235489 C-249.74042408 35.91406157 -166.04713955 14.04191441 0 0 Z " fill="#042787" transform="translate(2247.2458419799805,1367.681941986084)"/>
<path d="M0 0 C15.49839884 -0.02318515 30.99679571 -0.04097941 46.49520779 -0.05181217 C53.69090295 -0.05697503 60.88658722 -0.06401753 68.08227539 -0.07543945 C74.35184694 -0.0853866 80.62141061 -0.0918535 86.89098984 -0.09408849 C90.21265621 -0.09539555 93.53429466 -0.09899997 96.85595512 -0.10573006 C100.55819947 -0.11293628 104.26039631 -0.11399112 107.96264648 -0.11352539 C109.07178909 -0.11712067 110.1809317 -0.12071594 111.32368469 -0.12442017 C112.82767319 -0.12235817 112.82767319 -0.12235817 114.36204529 -0.12025452 C115.23867042 -0.12117631 116.11529554 -0.1220981 117.01848507 -0.12304783 C119 0 119 0 120 1 C120.32866414 3.5667918 120.5964453 6.11736228 120.82862282 8.69353676 C120.90605307 9.51314304 120.98348333 10.33274932 121.06325996 11.17719215 C121.32492464 13.95894037 121.5800953 16.74124758 121.83535767 19.52359009 C122.02216898 21.52415283 122.20937104 23.52467913 122.39693296 25.52517164 C122.91376445 31.05018782 123.42491171 36.57571771 123.93515921 42.1013453 C124.48543565 48.05000907 125.04085434 53.99819296 125.59559631 59.94644165 C126.68262456 71.61171523 127.76465256 83.27744849 128.84475185 94.94336517 C129.72248117 104.42329049 130.60171083 113.90307553 131.48200607 123.38276291 C131.73508817 126.1083124 131.98816517 128.83386236 132.24124181 131.55941236 C132.30415323 132.23693991 132.36706465 132.91446745 132.43188248 133.61252614 C134.20243429 152.68112401 135.97104607 171.74990103 137.73575783 190.8190403 C137.80234574 191.53856784 137.86893366 192.25809538 137.93753939 192.99942678 C138.27505323 196.64654206 138.6125514 200.29365879 138.95004494 203.94077595 C139.01707609 204.6651439 139.08410723 205.38951186 139.15316962 206.13583036 C139.288723 207.60068155 139.42427529 209.06553284 139.55982651 210.53038423 C141.66835482 233.31592806 143.78369521 256.10083065 145.90429688 278.88525391 C148.28523824 304.46693374 150.66069066 330.04911504 153.02827585 355.63203466 C153.28070763 358.35947228 153.53315976 361.08690802 153.78562546 363.8143425 C153.84778815 364.48593517 153.90995085 365.15752784 153.97399726 365.84947181 C154.9131931 375.99506618 155.85672755 386.14025115 156.80247879 396.28523636 C157.87817 407.82408639 158.94805855 419.36345847 160.01065518 430.90352209 C160.55323087 436.79426501 161.09846093 442.68473072 161.65077019 448.5745697 C162.1560802 453.96393064 162.65387716 459.35393028 163.14563517 464.74454419 C163.32509895 466.69711128 163.50733792 468.64942563 163.69259484 470.60145159 C163.94362171 473.25081114 164.18459641 475.90090081 164.42305946 478.5514164 C164.49759617 479.31245334 164.57213289 480.07349028 164.64892828 480.85758895 C165.1031406 486.07452984 165.53309538 491.53994991 162.67756939 496.12201118 C162.11814553 496.70332739 161.55872168 497.28464359 160.98234558 497.88357544 C160.34794744 498.5551984 159.71354931 499.22682137 159.05992699 499.91879654 C158.38015108 500.60559368 157.70037518 501.29239082 157 502 C155.99996665 503.03691797 155.99996665 503.03691797 154.97973061 504.09478378 C152.76645528 506.37052647 150.52784162 508.61872319 148.2824707 510.86279297 C147.01773422 512.13256737 147.01773422 512.13256737 145.72744751 513.42799377 C143.43827784 515.72497644 141.14689574 518.01971933 138.85413766 520.31311941 C137.41945828 521.74851362 135.98549493 523.18461921 134.55177879 524.62097549 C129.54411389 529.63785548 124.53390994 534.65218322 119.52124023 539.6640625 C114.85582423 544.32887562 110.19603977 548.99926288 105.53880435 553.67224205 C101.52861299 557.69550416 97.51458057 561.7149064 93.49752873 565.73131859 C91.10302135 568.12557127 88.71008568 570.52134429 86.32100868 572.92101669 C83.66182909 575.58995988 80.99642949 578.25253297 78.3293457 580.91357422 C77.54120987 581.70732956 76.75307404 582.5010849 75.9410553 583.31889343 C75.21364136 584.04211288 74.48622742 584.76533234 73.73677063 585.51046753 C73.10798162 586.13980131 72.4791926 586.76913509 71.83134937 587.4175396 C68.81075203 590.0276236 66.60363773 590.93292914 62.625 591.375 C55.00912082 590.58715043 50.15648048 584.41371462 45.0390625 579.19921875 C44.289664 578.44461868 43.5402655 577.69001862 42.76815796 576.91255188 C40.38227363 574.50893238 38.00319517 572.09872566 35.625 569.6875 C33.25311479 567.28783813 30.87972666 564.88971354 28.50326538 562.49458313 C27.0289112 561.00814408 25.55723516 559.51904187 24.08877563 558.02677917 C20.84543713 554.75232531 17.57280712 551.58100365 14.07763672 548.57543945 C9.32689655 544.48058749 4.942086 540.04866227 0.53125 535.59375 C-0.34849487 534.71021851 -1.22823975 533.82668701 -2.13464355 532.91638184 C-5.39656945 529.6402768 -8.65392564 526.3596502 -11.91094971 523.07867432 C-15.1148726 519.85169462 -18.32269116 516.6286192 -21.53125 513.40625 C-22.36168823 512.56751343 -23.19212646 511.72877686 -24.04772949 510.86462402 C-28.34878912 506.54568057 -32.7102736 502.4045078 -37.38757324 498.49353027 C-40.1019694 495.97928718 -40.97136729 494.38247112 -41.24846262 490.68107599 C-41.25166826 489.3020656 -41.24101123 487.92298125 -41.2194891 486.54413509 C-41.2128086 485.7919018 -41.20612809 485.03966851 -41.19924515 484.26464027 C-41.05894069 475.24234299 -40.27946641 466.27780697 -39.48817444 457.2938385 C-39.32328007 455.36006406 -39.15902147 453.42623533 -38.99533647 451.49235815 C-38.54767436 446.22496816 -38.09109063 440.95838529 -37.63293946 435.6918987 C-37.1389019 429.99438027 -36.65328688 424.29614303 -36.16661072 418.59799194 C-35.2136538 407.45573636 -34.25308896 396.31414927 -33.29001958 385.17276371 C-32.16825647 372.19148488 -31.05459721 359.20951464 -29.94138294 346.22750037 C-27.95500026 323.0654802 -25.96208 299.90402758 -23.96508789 276.74291992 C-22.02805621 254.2770966 -20.09446513 231.81098123 -18.1652832 209.34448242 C-18.10580403 208.65182489 -18.04632486 207.95916736 -17.98504328 207.2455202 C-17.44699743 200.97974431 -16.90898541 194.71396551 -16.37100822 188.44818372 C-12.70933889 145.80149517 -9.04452345 103.15507456 -5.36916542 60.50956345 C-4.98388419 56.0389287 -4.59891098 51.56826761 -4.21422195 47.09758186 C-3.77130464 41.95042363 -3.32772529 36.80332289 -2.8836109 31.65626781 C-2.72319703 29.79593078 -2.56301045 27.93557413 -2.40307618 26.0751958 C-1.65522814 17.37783376 -0.90277288 8.6829818 0 0 Z " fill="#33B8F3" transform="translate(2191,2542)"/>
<path d="M0 0 C0.87054095 -0.00311998 1.7410819 -0.00623996 2.63800287 -0.00945449 C5.55443248 -0.01743046 8.4706538 -0.01111237 11.38708496 -0.00482178 C13.4782066 -0.00753181 15.56932729 -0.01109282 17.66044617 -0.01544189 C23.3400805 -0.02456662 29.01964226 -0.02102126 34.69927788 -0.01468372 C40.64001538 -0.00962419 46.58074663 -0.01431505 52.52148438 -0.01745605 C62.49834307 -0.02109583 72.47517217 -0.01629629 82.45202637 -0.0067749 C93.99059563 0.00410965 105.52909421 0.00058409 117.06766176 -0.01042771 C126.97010036 -0.01950024 136.87251767 -0.02078603 146.77495909 -0.01555037 C152.69115578 -0.0124305 158.60731923 -0.01202185 164.52351379 -0.01862335 C170.08520635 -0.02439566 175.64680768 -0.02040194 181.20849037 -0.00883484 C183.25111553 -0.00618765 185.29374835 -0.00695434 187.33637047 -0.01136017 C190.12173061 -0.01681466 192.90679729 -0.00998254 195.69213867 0 C196.50293585 -0.00446144 197.31373303 -0.00892289 198.14909983 -0.01351953 C203.7489365 0.02548228 207.493571 0.55167152 211.65856934 4.37896729 C213.81465484 8.05229814 213.92386262 11.12834515 213.34606934 15.25396729 C212.33953514 17.97568591 210.93186467 20.35342756 209.40856934 22.81646729 C208.87779785 23.71848877 208.87779785 23.71848877 208.33630371 24.63873291 C207.02505786 26.85552291 205.6848017 29.0536578 204.34606934 31.25396729 C202.92918383 33.60853823 201.51365898 35.96388237 200.09997559 38.32037354 C199.71359421 38.96411423 199.32721283 39.60785492 198.92912292 40.27110291 C195.06517201 46.71326765 191.23218584 53.17365206 187.4022522 59.63607788 C180.3279997 71.57174281 173.22592851 83.48990474 166.06628418 95.37457275 C165.21671143 96.78633789 165.21671143 96.78633789 164.34997559 98.22662354 C163.62016479 99.43717407 163.62016479 99.43717407 162.87561035 100.67218018 C160.99602604 103.84482249 159.17563819 107.05222179 157.34606934 110.25396729 C117.08606934 110.25396729 76.82606934 110.25396729 35.34606934 110.25396729 C30.06606934 100.68396729 24.78606934 91.11396729 19.34606934 81.25396729 C14.11022896 71.89408331 14.11022896 71.89408331 8.86560059 62.53912354 C6.37319212 58.09448104 3.89244878 53.64349046 1.42028809 49.18756104 C1.09208069 48.59624893 0.76387329 48.00493683 0.42572021 47.39570618 C-1.19866595 44.46816543 -2.82000185 41.5390171 -4.43762207 38.60772705 C-7.01988055 33.93832024 -9.60217068 29.28121247 -12.37658691 24.72271729 C-12.76024414 24.08616211 -13.14390137 23.44960693 -13.53918457 22.79376221 C-14.48812453 21.23604754 -15.45843918 19.69140282 -16.43127441 18.14849854 C-18.09381968 14.21256868 -17.98542939 11.51547067 -17.65393066 7.25396729 C-13.46706742 0.12079286 -7.66407108 -0.04217185 0 0 Z " fill="#34B9F3" transform="translate(2154.6539306640625,2422.7460327148438)"/>
<path d="M0 0 C0.66 0.33 1.32 0.66 2 1 C-12.19 15.19 -26.38 29.38 -41 44 C-41.66 43.67 -42.32 43.34 -43 43 C-42.58226318 42.5875 -42.16452637 42.175 -41.73413086 41.75 C-32.67999737 32.95153968 -32.67999737 32.95153968 -24.1875 23.625 C-21.00892217 19.86408731 -17.40288141 16.70203564 -13.7109375 13.453125 C-8.95947478 9.1535305 -4.49139987 4.56824891 0 0 Z " fill="#536AAC" transform="translate(1778,1548)"/>
</svg>
